<svg width="1921" height="758" viewBox="0 0 1921 758" fill="none" xmlns="http://www.w3.org/2000/svg">
<g clip-path="url(#clip0_18185_10404)">
<path d="M1459.26 263.139L1242.63 742.795C1237.11 755.021 1223.16 760.984 1210.52 756.527L823.711 620.188C812.197 616.129 805.099 604.564 806.686 592.45L861.203 176.466C863.057 162.305 876.046 152.333 890.198 154.207L1439.11 226.874C1456.28 229.146 1466.4 247.347 1459.26 263.139Z" fill="#FB4F4F"/>
<path d="M1338.81 586.078L1373.19 39.2201C1374.17 23.5525 1388.77 12.3792 1404.14 15.5227L1899.84 116.985C1915.56 120.203 1924.58 136.83 1918.7 151.769L1717.04 664.534C1712.45 676.224 1700.12 682.91 1687.82 680.389L1359.39 613.019C1346.78 610.429 1338 598.939 1338.81 586.078Z" fill="#32A853"/>
<path d="M1342.81 522.643L1459.26 264.791C1466.39 248.999 1456.28 230.798 1439.11 228.526L1361.94 218.312L1342.81 522.643Z" fill="#26803F"/>
<path d="M19.8764 129.685L517.913 0.833674C533.608 -3.22483 549.116 8.01075 550.155 24.2012L585.811 580.073C586.608 592.448 578.502 603.646 566.503 606.752L270.724 683.266C258.724 686.372 246.208 680.508 240.908 669.292L2.99355 165.757C-3.93624 151.092 4.18169 133.743 19.8764 129.685Z" fill="#0D68FF"/>
<path d="M477.3 112.412L113.02 206.66L133.187 284.699L265.724 250.414L346.816 564.244L446.023 538.58L364.931 224.743L497.467 190.457L477.3 112.412Z" fill="white"/>
<path d="M919.127 136.564L944.924 530.438C946.038 547.456 930.666 560.87 913.97 557.447L495.265 471.646C480.466 468.614 471.415 453.575 475.658 439.066L565.795 130.993C569.017 119.981 579.113 112.412 590.584 112.412H893.355C906.96 112.412 918.238 122.975 919.127 136.564Z" fill="#FBB900"/>
<path d="M814.141 536.993L913.969 557.453C930.666 560.877 946.037 547.463 944.923 530.444L920.638 159.714L890.188 155.68C876.036 153.807 863.047 163.779 861.193 177.94L814.141 536.993Z" fill="#FFA200"/>
<path d="M1204.2 239.235C1140.87 219.646 1025.15 238.326 972.652 260.997L998.275 652.225L1094.68 645.901L1087.05 530.924C1087.05 530.924 1162.08 541.562 1221.2 514.292C1277.08 488.515 1311.91 436.713 1307.56 370.259C1303.59 309.723 1264.11 257.772 1204.2 239.235ZM1184.3 442.135C1152.58 462.129 1107.09 457.342 1082.13 454.454L1073.1 316.639C1073.1 316.639 1132.21 297.897 1172.35 313.583C1199.07 324.022 1216.71 348.049 1218.54 375.929C1220.3 402.733 1207.95 427.227 1184.3 442.135Z" fill="white"/>
<path d="M1465.92 507.505C1521.87 543.067 1638.43 555.498 1695.04 547.437L1773.13 163.236L1678.46 143.971L1655.6 256.905C1655.6 256.905 1586.01 226.896 1521.8 237.652C1461.12 247.817 1413.89 288.633 1400.63 353.892C1388.55 413.338 1412.99 473.855 1465.92 507.505ZM1538.44 316.98C1574.29 306.037 1616.93 322.619 1640.25 331.975L1612.74 467.319C1612.74 467.319 1550.79 469.846 1516.18 444.157C1493.15 427.057 1482.44 399.233 1488.01 371.857C1493.36 345.526 1511.71 325.14 1538.44 316.98Z" fill="white"/>
<path d="M495.262 471.446L579.962 488.8L558.581 155.449L475.66 438.86C471.412 453.369 480.463 468.408 495.262 471.446Z" fill="#FFA600"/>
<path d="M767.179 171.476C685.066 155.142 622.512 166.216 608.559 169.142L611.302 231.376C669.135 225.388 741.121 224.628 764.691 253.206C774.812 265.475 770.152 281.105 770.152 281.105C770.152 281.105 671.163 256.642 608.54 291.749C602.83 294.949 569.195 311.55 563.627 354.04C559.316 386.913 575.452 417.034 602.351 433.616C689.57 487.392 845.335 464.254 845.335 464.254L867.437 295.677C878.41 226.701 846.554 187.262 767.179 171.476ZM706.913 401.173C654.679 394.314 652.308 369.191 653.702 358.565C656.028 340.831 670.715 326.745 710.204 327.678C739.908 328.382 765.437 334.196 765.437 334.196L756.921 399.897C756.921 399.903 737.289 405.163 706.913 401.173Z" fill="white"/>
</g>
<defs>
<clipPath id="clip0_18185_10404">
<rect width="1920" height="758" fill="white" transform="translate(0.5)"/>
</clipPath>
</defs>
</svg>
